# File produced by Open Asset Import Library (http://www.assimp.sf.net)
# (assimp v3.1.187496374)

mtllib graphics/plant.obj.mtl

# 148 vertex positions
v  -0.433013 0.75 -0.75
v  -0.866025 0.75 -3.60956e-16
v  -0.866025 0.75 -0.5
v  0 0.75 0
v  0.866025 0.75 -0.5
v  0 0.75 -1
v  0.866025 0.75 0
v  0.866025 0.75 0.5
v  0.433013 0.75 0.75
v  -1.80478e-16 0.75 1
v  -0.866025 0.75 0.5
v  -0.605777 2.08955 0.453702
v  -0.605777 2.08955 -0.456518
v  -0.856398 2.16574 0.0278095
v  0.1 1.875 -4.51195e-17
v  0.555156 1.73663 -0.879595
v  -0.401242 2.02737 -0.851786
v  1.0564 1.58426 -0.0278095
v  0.805777 1.66045 -0.453702
v  0.123043 1.868 0.86569
v  -0.355156 2.01337 0.879595
v  1.06603 3 0.5
v  0.633013 3 0.75
v  0.2 3 -1.44382e-15
v  0.633013 3 -0.75
v  1.06603 3 -1.44382e-15
v  -0.666025 3 -0.5
v  0.2 3 -1
v  -0.666025 3 0.5
v  -0.666025 3 -1.44382e-15
v  0.2 3 1
v  1.06603 3 -0.5
v  0.7 3.91152 -0.9393
v  0.2 4.125 -0.1
v  -0.3 3.91152 -0.9393
v  0.95 4.01826 -0.51965
v  -0.3 4.33848 0.7393
v  -0.55 4.23174 0.31965
v  0.7 4.33848 0.7393
v  0.2 5.25 0.8
v  -0.233013 5.25 0.55
v  0.2 5.25 -0.2
v  -0.666025 5.25 0.3
v  -0.666025 5.25 -0.2
v  -0.666025 5.25 -0.7
v  -0.233013 5.25 -0.95
v  0.2 5.25 -1.2
v  0.2 5.25 -0.3
v  0.633013 5.25 -0.95
v  1.06603 5.25 -0.2
v  1.06603 5.25 -0.7
v  1.06603 5.25 0.3
v  0.633013 5.25 0.55
v  1.06099 6.65638 -0.200019
v  0.10139 6.375 -0.200019
v  0.581188 6.51569 -1.06604
v  0.581188 6.51569 0.666006
v  -0.378407 6.23431 0.666006
v  -0.858205 6.09362 -0.200019
v  -0.378407 6.23431 -1.06604
v  0.00278095 7.5 -0.200039
v  0.00278095 7.5 0.799961
v  -0.863244 7.5 0.299961
v  0.868806 7.5 0.299961
v  -0.863244 7.5 -0.700039
v  0.00278095 7.5 -1.20004
v  0.502781 8.81544 -0.944662
v  0.00278095 8.62415 -0.100266
v  0.00278095 8.81544 -0.944662
v  1.00278 8.62409 -0.100039
v  0.00278095 8.62409 -0.100039
v  -0.997219 8.62409 -0.100039
v  -0.497219 8.81544 -0.944662
v  0.636756 8.48402 0.518268
v  0.00278095 8.43275 0.744585
v  0.502781 8.43275 0.744585
v  -0.00278095 0 -0.0999613
v  -0.0851786 0 0.052389
v  -0.0879595 0 -0.0475723
v  0.00278095 0 0.0999613
v  0.0851786 0 -0.052389
v  0.0879595 0 0.0475723
v  -0.0879595 1.5 -0.0475723
v  -0.0851786 1.5 0.052389
v  -0.00278095 0.75 -0.0999613
v  -0.00278095 1.5 -0.0999613
v  0.0851786 1.5 -0.052389
v  0.0879595 1.5 0.0475723
v  0.00278095 0.75 0.0999613
v  0.00278095 1.5 0.0999613
v  0.120113 2.25 -0.0199057
v  -2.81997e-17 1.5 5.63993e-18
v  0.177295 2.25 -0.0791369
v  0.257182 2.25 -0.0592312
v  0.279887 2.25 0.0199057
v  0.222705 2.25 0.0791369
v  0.204886 2.18923 0.0808241
v  0.142818 2.25 0.0592312
v  0.177295 3.75 -0.0791369
v  0.120113 3.75 -0.0199057
v  0.257182 3.75 -0.0592312
v  0.279887 3.75 0.0199057
v  0.222705 3.75 0.0791369
v  0.142818 3.75 0.0592312
v  0.2 4.5 -0.3
v  0.286602 4.5 -0.25
v  0.286602 4.5 -0.15
v  0.2 4.5 -0.1
v  0.113397 4.5 -0.15
v  0.113397 4.5 -0.25
v  0.205476 4.5 -0.103162
v  0.202759 4.5 -0.101593
v  0.117602 4.5 -0.14765
v  0.114821 4.5 -0.247611
v  0.28796 4.5 -0.252428
v  0.205562 4.5 -0.100077
v  0.290741 4.5 -0.152466
v  0.205562 6 -0.100077
v  0.117602 6 -0.14765
v  0.114821 6 -0.247611
v  0.2 6 -0.3
v  0.290741 6 -0.152466
v  0.28796 6 -0.252428
v  -0.0544013 6.75 -0.140808
v  -0.0771059 6.75 -0.219944
v  -0.0199236 6.75 -0.279175
v  0.0254855 6.75 -0.120902
v  0.0599632 6.75 -0.25927
v  0.0826678 6.75 -0.180133
v  0.0254855 8.25 -0.120902
v  -0.0544013 8.25 -0.140808
v  0.00278095 6.75 -0.200039
v  -0.0771059 8.25 -0.219944
v  -0.0199236 8.25 -0.279175
v  0.0599632 8.25 -0.25927
v  0.0826678 8.25 -0.180133
v  -0.0838216 9 0.0499613
v  0.00278095 8.25 -0.200039
v  -0.0838216 9 -0.0500387
v  0.00278095 9 -0.100039
v  0.0893835 9 -0.0500387
v  0.00278095 9 0.0999613
v  0.0893835 9 0.0499613
v  0.00278095 9 -3.86758e-05
v  0.2 2.25 0
v  0.2 3.75 0
v  0.2 4.5 -0.2
v  0.2 6 -0.2

# 0 UV coordinates

# 140 vertex normals
vn 0 -0.0254 0
vn 0 0.0254 0
vn 0.00738766 0.0243019 -3.26801e-19
vn 0.00738766 0.0243019 -2.54933e-19
vn 0.00738766 0.0243019 9.64791e-18
vn 0.00738766 0.0243019 -2.25118e-18
vn -0.00738766 -0.0243019 3.26801e-19
vn -0.00738766 -0.0243019 2.54933e-19
vn -0.00738766 -0.0243019 -9.64791e-18
vn -0.00738766 -0.0243019 2.25118e-18
vn -2.15048e-17 -0.0246162 0.00626133
vn 1.69329e-19 -0.0246162 0.00626133
vn 2.15048e-17 0.0246162 -0.00626133
vn -1.69329e-19 0.0246162 -0.00626133
vn 0.00714714 -0.0243737 -6.5174e-17
vn 0.00714714 -0.0243737 -1.85001e-17
vn 0.00714714 -0.0243737 -1.43068e-17
vn -0.00714714 0.0243737 6.5174e-17
vn -0.00714714 0.0243737 1.85001e-17
vn -0.00714714 0.0243737 1.43068e-17
vn 7.08611e-18 -0.0247723 -0.00561194
vn 4.11614e-18 -0.0247723 -0.00561194
vn 6.23889e-18 -0.0247723 -0.00561194
vn -7.08611e-18 0.0247723 0.00561194
vn -4.11614e-18 0.0247723 0.00561194
vn -6.23889e-18 0.0247723 0.00561194
vn -0.0253902 0 0.000706361
vn 0.0253902 0 -0.000706361
vn -0.0133068 0 -0.0216354
vn 0.0133068 0 0.0216354
vn 0.0120834 0 -0.0223417
vn -0.0120834 -0 0.0223417
vn -0.0120834 2.46186e-20 0.0223417
vn 0.0120834 -2.46186e-20 -0.0223417
vn -0.0244732 0.00676449 0.00068085
vn 0.0244732 -0.00676449 -0.00068085
vn -0.0131607 0.00375403 -0.0213978
vn 0.0131607 -0.00375403 0.0213978
vn -0.0253902 -3.17331e-19 0.000706361
vn 0.0253902 3.17331e-19 -0.000706361
vn 0.0120013 -0.0029548 -0.02219
vn -0.0120013 0.0029548 0.02219
vn 0.0245921 -0.00631842 -0.000684157
vn -0.0245921 0.00631842 0.000684157
vn 0.0131958 -0.00327372 0.0214549
vn -0.0131958 0.00327372 -0.0214549
vn -0.0118134 0.00533906 0.0218426
vn 0.0118134 -0.00533906 -0.0218426
vn -0.0178273 0.0055807 -0.0172106
vn 0.0178273 -0.0055807 0.0172106
vn 0.00613827 -0.000789811 -0.0246345
vn -0.00613827 0.000789811 0.0246345
vn 0.0238299 -0.00552748 -0.00683686
vn -0.0238299 0.00552748 0.00683686
vn 0.0180485 -0.00397592 0.0174242
vn -0.0180485 0.00397592 -0.0174242
vn -0.00611206 0.00247333 0.0245293
vn 0.00611206 -0.00247333 -0.0245293
vn -0.0172164 0.00554354 0.0178333
vn 0.0172164 -0.00554354 -0.0178333
vn -0.0239661 0.00484827 0.00687594
vn 0.0239661 -0.00484827 -0.00687594
vn -0.0182738 0 -0.0176417
vn 0.0182738 0 0.0176417
vn 0.00614124 0 -0.0246464
vn -0.00614124 -0 0.0246464
vn 0.024415 0 -0.00700473
vn -0.024415 -0 0.00700473
vn -0.0179761 -0.00456636 -0.0173542
vn 0.0179761 0.00456636 0.0173542
vn 0.00594896 -0.0063061 -0.0238747
vn -0.00594896 0.0063061 0.0238747
vn 0.0243536 -0.00180093 -0.0069871
vn -0.0243536 0.00180093 0.0069871
vn 0.0179602 0.0046851 0.017339
vn -0.0179602 -0.0046851 -0.017339
vn -0.00594187 0.00641943 0.0238463
vn 0.00594187 -0.00641943 -0.0238463
vn -0.0243448 0.00192483 0.00698459
vn 0.0243448 -0.00192483 -0.00698459
vn -0.0122604 -0.00662473 -0.0212357
vn 0.0122604 0.00662473 0.0212357
vn 0.0122604 -0.00662473 -0.0212357
vn -0.0122604 0.00662473 0.0212357
vn 0.0253805 -0.000995601 -2.88241e-18
vn -0.0253805 0.000995601 2.88241e-18
vn 0.0124729 0.00478242 0.0216036
vn -0.0124729 -0.00478242 -0.0216036
vn -0.0124729 0.00478242 0.0216036
vn 0.0124729 -0.00478242 -0.0216036
vn -0.0253805 -0.000995601 -1.72945e-17
vn 0.0253805 0.000995601 1.72945e-17
vn -0.0120013 -0.0029548 0.02219
vn 0.0120013 0.0029548 -0.02219
vn -0.0245921 -0.00631842 0.000684157
vn 0.0245921 0.00631842 -0.000684157
vn -0.0131958 -0.00327372 -0.0214549
vn 0.0131958 0.00327372 0.0214549
vn 0.0131607 0.00375403 0.0213978
vn -0.0131607 -0.00375403 -0.0213978
vn 0.0119722 0.00343754 -0.0221362
vn -0.0119722 -0.00343754 0.0221362
vn 0.0244732 0.00676449 -0.00068085
vn -0.0244732 -0.00676449 0.00068085
vn -0.00613827 -0.000789811 0.0246345
vn 0.00613827 0.000789811 -0.0246345
vn -0.0238299 -0.00552748 0.00683686
vn 0.0238299 0.00552748 -0.00683686
vn -0.0180485 -0.00397592 -0.0174242
vn 0.0180485 0.00397592 0.0174242
vn 0.00611206 0.00247333 -0.0245293
vn -0.00611206 -0.00247333 0.0245293
vn 0.0178273 0.0055807 0.0172106
vn -0.0178273 -0.0055807 -0.0172106
vn 0.0234508 0.00706756 -0.0067281
vn -0.0234508 -0.00706756 0.0067281
vn -0.00594896 -0.0063061 0.0238747
vn 0.00594896 0.0063061 -0.0238747
vn -0.0243536 -0.00180093 0.0069871
vn 0.0243536 0.00180093 -0.0069871
vn -0.0179602 0.0046851 -0.017339
vn 0.0179602 -0.0046851 0.017339
vn 0.00594187 0.00641943 -0.0238463
vn -0.00594187 -0.00641943 0.0238463
vn 0.0179761 -0.00456636 0.0173542
vn -0.0179761 0.00456636 -0.0173542
vn 0.0243448 0.00192483 -0.00698459
vn -0.0243448 -0.00192483 0.00698459
vn -0.0122604 -0.00662473 0.0212357
vn 0.0122604 0.00662473 -0.0212357
vn -0.0253805 -0.000995601 2.88241e-18
vn 0.0253805 0.000995601 -2.88241e-18
vn -0.0124729 0.00478242 -0.0216036
vn 0.0124729 -0.00478242 0.0216036
vn 0.0124729 0.00478242 -0.0216036
vn -0.0124729 -0.00478242 0.0216036
vn 0.0253805 -0.000995601 5.12429e-18
vn -0.0253805 0.000995601 -5.12429e-18
vn 0.0122604 -0.00662473 0.0212357
vn -0.0122604 0.00662473 -0.0212357

# Mesh 'SketchUp' with 408 faces
g SketchUp
usemtl ID3
f  1//1 2//1 3//1
f  2//1 1//1 4//1
f  5//1 4//1 6//1
f  4//1 5//1 7//1
f  8//1 9//1 4//1
f  4//1 10//1 11//1
f  4//2 1//2 2//2
f  7//2 5//2 4//2
f  6//2 4//2 5//2
f  4//2 9//2 8//2
f  11//2 10//2 4//2
f  3//2 2//2 1//2
f  12//3 13//3 14//3
f  13//3 12//3 15//3
f  16//4 17//4 15//3
f  18//5 19//5 15//3
f  20//6 15//3 21//6
f  15//7 12//7 13//7
f  15//7 17//8 16//8
f  15//7 19//9 18//9
f  21//10 15//7 20//10
f  14//7 13//7 12//7
f  22//1 23//1 24//1
f  25//1 26//1 24//1
f  24//1 27//1 28//1
f  24//1 29//1 30//1
f  29//1 24//1 31//1
f  26//1 25//1 32//1
f  24//2 23//2 22//2
f  24//2 26//2 25//2
f  28//2 27//2 24//2
f  31//2 24//2 29//2
f  30//2 29//2 24//2
f  32//2 25//2 26//2
f  33//11 34//11 35//11
f  34//11 33//11 36//11
f  34//11 37//12 38//12
f  37//12 34//11 39//12
f  36//13 33//13 34//13
f  35//13 34//13 33//13
f  39//14 34//13 37//14
f  38//14 37//14 34//13
f  40//1 41//1 42//1
f  42//1 43//1 44//1
f  42//1 45//1 46//1
f  47//1 42//1 48//1
f  42//1 47//1 49//1
f  50//1 42//1 51//1
f  52//1 53//1 42//1
f  42//2 41//2 40//2
f  44//2 43//2 42//2
f  46//2 45//2 42//2
f  49//2 47//2 42//2
f  48//2 42//2 47//2
f  51//2 42//2 50//2
f  42//2 53//2 52//2
f  54//15 55//15 56//15
f  57//16 58//16 55//15
f  55//15 59//17 60//17
f  56//18 55//18 54//18
f  55//18 58//19 57//19
f  60//20 59//20 55//18
f  61//1 62//1 63//1
f  62//1 61//1 64//1
f  61//1 65//1 66//1
f  64//2 61//2 62//2
f  63//2 62//2 61//2
f  66//2 65//2 61//2
f  67//21 68//21 69//21
f  70//21 68//21 67//21
f  68//21 70//21 71//21
f  71//21 72//22 73//22
f  74//23 75//23 71//21
f  75//23 74//23 76//23
f  67//24 68//24 70//24
f  69//24 68//24 67//24
f  71//24 70//24 68//24
f  73//25 72//25 71//24
f  71//24 75//26 74//26
f  76//26 74//26 75//26
f  77//1 78//1 79//1
f  78//1 77//1 80//1
f  80//1 77//1 81//1
f  80//1 81//1 82//1
f  82//2 81//2 80//2
f  81//2 77//2 80//2
f  80//2 77//2 78//2
f  79//2 78//2 77//2
f  83//27 78//27 84//27
f  78//27 83//27 79//27
f  79//28 83//28 78//28
f  84//28 78//28 83//28
f  83//29 77//29 79//29
f  77//29 83//29 85//29
f  85//29 83//29 86//29
f  86//30 83//30 85//30
f  85//30 83//30 77//30
f  79//30 77//30 83//30
f  85//31 81//31 77//31
f  81//31 85//31 87//31
f  87//31 85//31 86//31
f  86//32 85//32 87//32
f  87//32 85//32 81//32
f  77//32 81//32 85//32
f  81//28 88//28 82//28
f  88//28 81//28 87//28
f  87//27 81//27 88//27
f  82//27 88//27 81//27
f  88//30 80//30 82//30
f  80//30 88//30 89//30
f  89//30 88//30 90//30
f  90//29 88//29 89//29
f  89//29 88//29 80//29
f  82//29 80//29 88//29
f  89//33 78//33 80//33
f  78//33 89//33 84//33
f  84//33 89//33 90//33
f  90//34 89//34 84//34
f  84//34 89//34 78//34
f  80//34 78//34 89//34
f  83//35 84//35 91//35
f  91//36 84//36 83//36
f  84//2 86//2 83//2
f  86//2 84//2 90//2
f  86//2 90//2 92//2
f  92//2 87//2 86//2
f  87//2 92//2 90//2
f  87//2 90//2 88//2
f  92//1 90//1 86//1
f  90//1 92//1 87//1
f  86//1 87//1 92//1
f  90//1 84//1 86//1
f  88//1 90//1 87//1
f  83//1 86//1 84//1
f  93//37 86//37 83//37
f  83//38 86//38 93//38
f  92//39 89//39 90//39
f  89//39 92//39 4//39
f  4//39 92//39 86//39
f  4//39 86//39 85//39
f  85//40 86//40 4//40
f  86//40 92//40 4//40
f  4//40 92//40 89//40
f  90//40 89//40 92//40
f  94//41 87//41 86//41
f  86//42 87//42 94//42
f  87//43 95//43 88//43
f  88//44 95//44 87//44
f  96//45 90//45 88//45
f  90//45 96//45 97//45
f  97//46 96//46 90//46
f  88//46 90//46 96//46
f  91//47 84//47 90//47
f  90//48 84//48 91//48
f  93//49 83//49 91//49
f  91//50 83//50 93//50
f  94//51 86//51 93//51
f  93//52 86//52 94//52
f  94//53 95//53 87//53
f  87//54 95//54 94//54
f  95//55 96//55 88//55
f  88//56 96//56 95//56
f  97//57 98//57 90//57
f  98//57 97//57 96//57
f  96//58 97//58 98//58
f  90//58 98//58 97//58
f  91//59 90//59 97//59
f  97//60 90//60 91//60
f  91//61 90//61 98//61
f  98//62 90//62 91//62
f  99//63 91//63 100//63
f  91//63 99//63 93//63
f  93//64 99//64 91//64
f  100//64 91//64 99//64
f  99//65 94//65 93//65
f  94//65 99//65 101//65
f  101//66 99//66 94//66
f  93//66 94//66 99//66
f  94//67 102//67 95//67
f  102//67 94//67 101//67
f  101//68 94//68 102//68
f  95//68 102//68 94//68
f  95//64 103//64 96//64
f  103//64 95//64 102//64
f  102//63 95//63 103//63
f  96//63 103//63 95//63
f  103//66 98//66 96//66
f  98//66 103//66 104//66
f  104//65 103//65 98//65
f  96//65 98//65 103//65
f  100//68 98//68 104//68
f  98//68 100//68 91//68
f  91//67 100//67 98//67
f  104//67 98//67 100//67
f  104//2 99//2 100//2
f  99//2 104//2 103//2
f  99//2 103//2 101//2
f  101//2 103//2 102//2
f  102//1 103//1 101//1
f  101//1 103//1 99//1
f  103//1 104//1 99//1
f  100//1 99//1 104//1
f  105//69 99//69 100//69
f  100//70 99//70 105//70
f  106//71 101//71 99//71
f  99//72 101//72 106//72
f  107//73 102//73 101//73
f  101//74 102//74 107//74
f  108//75 103//75 102//75
f  102//76 103//76 108//76
f  109//77 104//77 103//77
f  103//78 104//78 109//78
f  110//79 100//79 104//79
f  104//80 100//80 110//80
f  105//81 100//81 110//81
f  110//82 100//82 105//82
f  106//83 99//83 105//83
f  105//84 99//84 106//84
f  106//85 107//85 101//85
f  101//86 107//86 106//86
f  107//87 108//87 102//87
f  108//87 107//87 111//87
f  108//87 111//87 112//87
f  112//88 111//88 108//88
f  111//88 107//88 108//88
f  102//88 108//88 107//88
f  109//89 103//89 108//89
f  108//90 103//90 109//90
f  110//91 104//91 109//91
f  109//92 104//92 110//92
f  109//2 113//2 110//2
f  113//2 109//2 108//2
f  110//2 113//2 114//2
f  113//2 108//2 112//2
f  112//2 105//2 113//2
f  114//2 113//2 105//2
f  105//2 110//2 114//2
f  105//2 111//2 106//2
f  105//2 106//2 115//2
f  111//2 105//2 112//2
f  111//2 112//2 116//2
f  107//2 106//2 111//2
f  111//2 116//2 107//2
f  107//2 115//2 106//2
f  115//2 107//2 117//2
f  117//2 107//2 116//2
f  114//1 110//1 105//1
f  114//1 113//1 110//1
f  105//1 113//1 114//1
f  110//1 113//1 109//1
f  112//1 108//1 113//1
f  108//1 109//1 113//1
f  113//1 105//1 112//1
f  106//1 111//1 105//1
f  115//1 106//1 105//1
f  112//1 105//1 111//1
f  116//1 112//1 111//1
f  111//1 106//1 107//1
f  107//1 116//1 111//1
f  106//1 115//1 107//1
f  117//1 107//1 115//1
f  116//1 107//1 117//1
f  118//32 112//32 116//32
f  112//32 118//32 113//32
f  113//32 118//32 119//32
f  119//31 118//31 113//31
f  113//31 118//31 112//31
f  116//31 112//31 118//31
f  120//27 113//27 119//27
f  113//27 120//27 114//27
f  114//28 120//28 113//28
f  119//28 113//28 120//28
f  120//29 105//29 114//29
f  105//29 120//29 48//29
f  48//29 120//29 121//29
f  121//30 120//30 48//30
f  48//30 120//30 105//30
f  114//30 105//30 120//30
f  122//30 116//30 117//30
f  116//30 122//30 118//30
f  118//29 122//29 116//29
f  117//29 116//29 122//29
f  48//31 115//31 105//31
f  115//31 48//31 123//31
f  123//31 48//31 121//31
f  121//32 48//32 123//32
f  123//32 48//32 115//32
f  105//32 115//32 48//32
f  115//28 122//28 117//28
f  122//28 115//28 123//28
f  123//27 115//27 122//27
f  117//27 122//27 115//27
f  124//93 119//93 118//93
f  118//94 119//94 124//94
f  119//2 121//2 120//2
f  121//2 119//2 118//2
f  121//2 118//2 123//2
f  123//2 118//2 122//2
f  122//1 118//1 123//1
f  123//1 118//1 121//1
f  118//1 119//1 121//1
f  120//1 121//1 119//1
f  120//95 119//95 125//95
f  125//96 119//96 120//96
f  126//97 121//97 120//97
f  120//98 121//98 126//98
f  127//99 118//99 122//99
f  122//100 118//100 127//100
f  128//101 123//101 121//101
f  121//102 123//102 128//102
f  123//103 129//103 122//103
f  122//104 129//104 123//104
f  124//105 118//105 127//105
f  127//106 118//106 124//106
f  125//107 119//107 124//107
f  124//108 119//108 125//108
f  126//109 120//109 125//109
f  125//110 120//110 126//110
f  128//111 121//111 126//111
f  126//112 121//112 128//112
f  129//113 127//113 122//113
f  122//114 127//114 129//114
f  128//115 129//115 123//115
f  123//116 129//116 128//116
f  130//66 124//66 127//66
f  124//66 130//66 131//66
f  131//65 130//65 124//65
f  127//65 124//65 130//65
f  132//1 124//1 125//1
f  124//1 132//1 127//1
f  127//1 132//1 129//1
f  126//1 132//1 125//1
f  132//1 126//1 128//1
f  132//1 128//1 129//1
f  129//2 132//2 127//2
f  129//2 128//2 132//2
f  127//2 132//2 124//2
f  125//2 124//2 132//2
f  128//2 126//2 132//2
f  125//2 132//2 126//2
f  133//68 124//68 131//68
f  124//68 133//68 125//68
f  125//67 133//67 124//67
f  131//67 124//67 133//67
f  134//63 125//63 133//63
f  125//63 134//63 126//63
f  126//64 134//64 125//64
f  133//64 125//64 134//64
f  134//65 128//65 126//65
f  128//65 134//65 135//65
f  135//66 134//66 128//66
f  126//66 128//66 134//66
f  129//64 130//64 127//64
f  130//64 129//64 136//64
f  136//63 129//63 130//63
f  127//63 130//63 129//63
f  128//67 136//67 129//67
f  136//67 128//67 135//67
f  135//68 128//68 136//68
f  129//68 136//68 128//68
f  137//117 131//117 130//117
f  130//118 131//118 137//118
f  131//2 138//2 133//2
f  138//2 131//2 130//2
f  138//2 130//2 136//2
f  138//2 134//2 133//2
f  134//2 138//2 135//2
f  135//2 138//2 136//2
f  136//1 130//1 138//1
f  136//1 138//1 135//1
f  130//1 131//1 138//1
f  133//1 138//1 131//1
f  135//1 138//1 134//1
f  133//1 134//1 138//1
f  133//119 131//119 139//119
f  139//120 131//120 133//120
f  134//121 133//121 140//121
f  140//122 133//122 134//122
f  141//123 135//123 134//123
f  134//124 135//124 141//124
f  136//125 142//125 130//125
f  130//126 142//126 136//126
f  135//127 143//127 136//127
f  136//128 143//128 135//128
f  137//129 130//129 142//129
f  142//130 130//130 137//130
f  131//131 137//131 139//131
f  139//132 137//132 131//132
f  140//133 133//133 139//133
f  139//134 133//134 140//134
f  141//135 134//135 140//135
f  140//136 134//136 141//136
f  135//137 141//137 143//137
f  143//138 141//138 135//138
f  142//139 136//139 143//139
f  143//140 136//140 142//140
f  142//2 144//2 137//2
f  144//2 142//2 143//2
f  144//2 143//2 141//2
f  144//2 139//2 137//2
f  139//2 144//2 140//2
f  140//2 144//2 141//2
f  141//1 143//1 144//1
f  141//1 144//1 140//1
f  143//1 142//1 144//1
f  137//1 144//1 142//1
f  140//1 144//1 139//1
f  137//1 139//1 144//1

# Mesh 'SketchUp' with 12 faces
g SketchUp
usemtl ID179
l  144 68
l  68 138
l  145 15
l  15 92
l  145 24
l  24 146
l  34 146
l  147 34
l  147 42
l  42 148
l  55 148
l  132 55

